<svg xmlns="http://www.w3.org/2000/svg" version="1.1" xmlns:xlink="http://www.w3.org/1999/xlink" xmlns:svgjs="http://svgjs.dev/svgjs" width="1000" height="937" viewBox="0 0 1000 937"><g transform="matrix(1,0,0,1,0,0)"><svg viewBox="0 0 384 360" data-background-color="#1ebbd7" preserveAspectRatio="xMidYMid meet" height="937" width="1000" xmlns="http://www.w3.org/2000/svg" xmlns:xlink="http://www.w3.org/1999/xlink"><g id="tight-bounds" transform="matrix(1,0,0,1,0,0)"><svg viewBox="0 0 384 360" height="360" width="384"><g><svg></svg></g><g><svg viewBox="0 0 384 360" height="360" width="384"><g><path xmlns="http://www.w3.org/2000/svg" d="M362.354 145.441v-42.24c0-21.12-19.163-38.402-42.587-38.402h-93.208c-15.198 0-28.337-8.831-34.559-21.646-6.222 12.81-19.36 21.646-34.559 21.646h-93.208c-23.424 0-42.587 17.282-42.587 38.402v42.24c0 15.198-8.831 28.337-21.646 34.559 12.81 6.222 21.646 19.36 21.646 34.559v42.24c0 21.12 19.163 38.402 42.587 38.402h93.208c15.198 0 28.337 8.831 34.559 21.646 6.222-12.81 19.36-21.646 34.559-21.646h93.208c23.424 0 42.587-17.282 42.587-38.402v-42.24c0-15.198 8.831-28.337 21.646-34.559-12.81-6.222-21.646-19.36-21.646-34.559z" fill="#ffffff" fill-rule="nonzero" stroke="none" stroke-width="1" stroke-linecap="butt" stroke-linejoin="miter" stroke-miterlimit="10" stroke-dasharray="" stroke-dashoffset="0" font-family="none" font-weight="none" font-size="none" text-anchor="none" style="mix-blend-mode: normal" data-fill-palette-color="tertiary"></path></g><g transform="matrix(1,0,0,1,76.80000000000001,135.3572729714564)"><svg viewBox="0 0 230.39999999999998 89.2854540570872" height="89.2854540570872" width="230.39999999999998"><g><svg viewBox="0 0 230.4 89.28545405708721" height="89.2854540570872" width="230.39999999999998"><g transform="matrix(1,0,0,1,0,58.585603078562656)"><svg viewBox="0 0 230.4 30.699850978524548" height="30.699850978524548" width="230.4"><g id="textblocktransform"><svg viewBox="0 0 230.4 30.699850978524548" height="30.699850978524548" width="230.4" id="textblock"><g><svg viewBox="0 0 230.4 30.699850978524548" height="30.699850978524548" width="230.4"><g transform="matrix(1,0,0,1,0,0)"><svg width="230.4" viewBox="-0.004110395908355713 -36.51179885864258 369.4130859375 49.2227783203125" height="30.699850978524548" data-palette-color="#1ebbd7"><path d="M20.9 10.69l-17.554 2.021-0.214-1.858c1.262-0.172 2.264-0.385 3.007-0.638 0.749-0.254 1.304-0.596 1.663-1.027 0.366-0.438 0.58-1.023 0.644-1.755 0.063-0.732 0.029-1.668-0.102-2.807v0l-2.617-22.73c-0.131-1.139-0.293-2.05-0.486-2.732-0.2-0.688-0.492-1.215-0.876-1.58-0.392-0.371-0.92-0.592-1.587-0.663-0.666-0.071-1.522-0.08-2.569-0.026v0l-0.213-1.848 14.584-1.679c4.384-0.505 7.888-0.12 10.511 1.155 2.617 1.282 4.089 3.338 4.414 6.166v0c0.247 2.146-0.226 3.979-1.421 5.498-1.193 1.526-3.2 2.895-6.019 4.106v0l0.022 0.199c1.017-0.023 1.908-0.012 2.672 0.034 0.764 0.046 1.447 0.125 2.05 0.237 0.603 0.112 1.172 0.268 1.705 0.468 0.54 0.2 1.07 0.434 1.591 0.703v0c3.131 1.72 4.874 4.123 5.229 7.209v0c0.198 1.722-0.097 3.38-0.887 4.974-0.79 1.587-1.998 2.904-3.622 3.95v0c-0.516 0.355-1.059 0.655-1.627 0.903-0.562 0.246-1.228 0.47-1.997 0.672-0.769 0.203-1.66 0.389-2.673 0.56-1.021 0.165-2.231 0.327-3.628 0.488zM20.808 8.577v0c5.881-0.677 8.532-3.536 7.951-8.576v0c-0.423-3.676-2.229-6.072-5.418-7.188v0c-0.549-0.165-1.075-0.302-1.577-0.412-0.508-0.103-1.092-0.159-1.751-0.171-0.658-0.005-1.436 0.028-2.335 0.098-0.898 0.07-1.999 0.18-3.303 0.33v0l-2.196 0.253 1.253 10.878c0.229 1.987 0.913 3.351 2.051 4.092 1.139 0.741 2.914 0.973 5.325 0.696zM11.899-9.523l2.732-0.315c1.007-0.116 1.849-0.23 2.527-0.341 0.685-0.112 1.265-0.236 1.739-0.371 0.481-0.136 0.898-0.301 1.252-0.497 0.361-0.189 0.722-0.435 1.082-0.739v0c0.965-0.769 1.614-1.635 1.946-2.599 0.333-0.958 0.415-2.168 0.246-3.632v0c-0.296-2.57-1.134-4.342-2.515-5.317-1.381-0.982-3.403-1.319-6.065-1.013v0l-3.756 0.432c-0.556 0.064-0.802 0.374-0.738 0.931v0zM58.349-31.456v0c2.869-0.25 5.586 0.021 8.151 0.815 2.565 0.793 4.838 1.99 6.818 3.591 1.98 1.601 3.595 3.548 4.846 5.841 1.257 2.286 2.006 4.814 2.248 7.583v0c0.231 2.643-0.084 5.17-0.944 7.581-0.861 2.404-2.127 4.542-3.797 6.414-1.677 1.873-3.714 3.412-6.112 4.619-2.39 1.212-5.003 1.942-7.839 2.19v0c-2.836 0.247-5.536-0.019-8.1-0.799-2.564-0.773-4.833-1.937-6.81-3.492-1.976-1.554-3.596-3.44-4.86-5.658-1.258-2.226-2.003-4.66-2.233-7.304v0c-0.242-2.769 0.055-5.389 0.89-7.857 0.835-2.475 2.088-4.673 3.761-6.592 1.673-1.919 3.704-3.492 6.093-4.718 2.389-1.226 5.018-1.964 7.888-2.214zM61.485 4.488v0c2.152-0.188 4.052-0.732 5.7-1.632 1.648-0.9 3.022-2.104 4.121-3.612 1.1-1.508 1.888-3.293 2.364-5.356 0.476-2.063 0.606-4.332 0.389-6.809v0c-0.228-2.61-0.759-4.936-1.592-6.978-0.835-2.049-1.921-3.761-3.259-5.136-1.332-1.383-2.899-2.397-4.702-3.043-1.796-0.646-3.77-0.876-5.923-0.688v0c-2.152 0.188-4.056 0.755-5.713 1.703-1.657 0.948-3.025 2.218-4.104 3.812-1.079 1.587-1.853 3.461-2.32 5.622-0.468 2.155-0.588 4.538-0.36 7.149v0c0.216 2.477 0.737 4.69 1.563 6.639 0.826 1.949 1.904 3.571 3.235 4.867 1.331 1.296 2.893 2.244 4.685 2.844 1.792 0.6 3.764 0.806 5.916 0.618zM110.05-5.387l0.189-0.01 11.192-29.655 10.974-0.591 0.1 1.858c-1.043 0.09-1.875 0.265-2.495 0.524-0.627 0.267-1.098 0.68-1.416 1.238-0.31 0.557-0.497 1.312-0.559 2.264-0.069 0.958-0.063 2.173 0.016 3.644v0l1.035 19.212c0.088 1.638 0.224 2.925 0.408 3.864 0.184 0.938 0.477 1.66 0.878 2.166 0.407 0.499 0.965 0.813 1.673 0.941 0.715 0.128 1.645 0.175 2.791 0.14v0l0.101 1.868-15.887 0.855-0.101-1.867c1.144-0.088 2.06-0.241 2.75-0.459 0.696-0.218 1.227-0.583 1.593-1.097 0.366-0.514 0.588-1.223 0.666-2.129 0.085-0.906 0.086-2.128 0.003-3.665v0l-1.225-22.747-0.489 0.026-12.587 32.934-1.079 0.059-15.801-31.406-0.19 0.01 1.207 22.408c0.088 1.638 0.221 2.926 0.398 3.864 0.184 0.938 0.477 1.66 0.878 2.166 0.407 0.499 0.965 0.813 1.673 0.941 0.715 0.128 1.645 0.175 2.791 0.14v0l0.101 1.867-13.68 0.737-0.101-1.867c1.144-0.088 2.06-0.241 2.75-0.459 0.696-0.218 1.227-0.583 1.593-1.097 0.366-0.514 0.588-1.223 0.666-2.129 0.085-0.906 0.086-2.128 0.003-3.665v0l-1.071-19.901c-0.074-1.371-0.192-2.503-0.354-3.396-0.162-0.893-0.43-1.593-0.804-2.1-0.367-0.501-0.886-0.84-1.557-1.018-0.664-0.178-1.52-0.272-2.568-0.282v0l-0.1-1.858 11.713-0.63zM156.328 1.592l-17.665 0.414-0.044-1.87c1.272-0.056 2.29-0.177 3.053-0.361 0.769-0.185 1.353-0.475 1.75-0.872 0.404-0.403 0.671-0.966 0.8-1.689 0.13-0.723 0.181-1.658 0.155-2.804v0l-0.535-22.874c-0.027-1.146-0.105-2.068-0.235-2.765-0.136-0.704-0.379-1.255-0.729-1.654-0.356-0.405-0.863-0.673-1.519-0.804-0.657-0.131-1.509-0.218-2.557-0.261v0l-0.043-1.859 14.676-0.343c4.412-0.103 7.866 0.6 10.362 2.108 2.489 1.516 3.767 3.696 3.834 6.542v0c0.051 2.159-0.588 3.941-1.916 5.346-1.327 1.411-3.45 2.591-6.369 3.54v0l0.005 0.2c1.015 0.07 1.901 0.162 2.657 0.278 0.756 0.116 1.43 0.257 2.021 0.423 0.591 0.166 1.142 0.373 1.655 0.622 0.519 0.248 1.026 0.529 1.52 0.844v0c2.961 1.998 4.478 4.55 4.55 7.656v0c0.041 1.733-0.405 3.357-1.336 4.872-0.932 1.509-2.254 2.71-3.967 3.604v0c-0.546 0.306-1.114 0.556-1.703 0.75-0.582 0.194-1.265 0.356-2.049 0.488-0.784 0.132-1.688 0.236-2.713 0.314-1.032 0.071-2.251 0.123-3.658 0.155zM156.429-0.521v0c5.918-0.138 8.818-2.744 8.699-7.815v0c-0.087-3.699-1.667-6.249-4.74-7.651v0c-0.532-0.214-1.043-0.399-1.533-0.555-0.497-0.148-1.073-0.258-1.728-0.329-0.655-0.065-1.433-0.103-2.334-0.116-0.901-0.012-2.007-0.003-3.32 0.028v0l-2.209 0.052 0.256 10.947c0.047 1.999 0.603 3.42 1.67 4.262 1.067 0.842 2.813 1.235 5.239 1.177zM149.206-19.357l2.75-0.064c1.013-0.024 1.862-0.06 2.548-0.11 0.692-0.05 1.281-0.12 1.765-0.211 0.491-0.092 0.922-0.218 1.292-0.38 0.376-0.156 0.758-0.368 1.145-0.637v0c1.031-0.678 1.756-1.481 2.174-2.412 0.419-0.923 0.611-2.122 0.576-3.594v0c-0.06-2.586-0.734-4.427-2.019-5.525-1.286-1.104-3.269-1.624-5.948-1.561v0l-3.779 0.089c-0.56 0.013-0.833 0.3-0.821 0.859v0zM199.453-7.087l-1.994-5.306-13.11-0.041c-0.558 1.345-1.035 2.53-1.431 3.556-0.397 1.032-0.719 1.924-0.968 2.677-0.249 0.753-0.424 1.389-0.526 1.908-0.095 0.526-0.143 0.953-0.144 1.28v0c-0.003 0.913 0.289 1.544 0.874 1.893 0.586 0.342 1.568 0.515 2.948 0.519v0l-0.005 1.87-11.93-0.037 0.006-1.87c0.747-0.091 1.391-0.219 1.931-0.384 0.54-0.158 1.018-0.387 1.432-0.686 0.408-0.292 0.769-0.674 1.083-1.146 0.308-0.472 0.613-1.051 0.916-1.738v0l12.859-31.92 2.11 0.007 11.064 27.724c0.748 1.836 1.396 3.301 1.946 4.396 0.557 1.102 1.094 1.93 1.613 2.485 0.525 0.555 1.09 0.917 1.696 1.086 0.599 0.169 1.326 0.254 2.179 0.256v0l-0.005 1.91-16.01-0.049 0.006-1.91c1.74 0.005 2.937-0.158 3.591-0.489 0.654-0.325 0.983-0.864 0.985-1.617v0c0.001-0.327-0.015-0.627-0.047-0.9-0.032-0.28-0.088-0.584-0.167-0.911-0.079-0.327-0.191-0.697-0.337-1.111-0.145-0.407-0.334-0.891-0.565-1.452zM191.132-29.353l-5.795 14.473 11.2 0.034zM223.425-13.24l-9.393-17.043c-0.472-0.859-0.914-1.564-1.327-2.114-0.413-0.551-0.835-0.995-1.267-1.333-0.432-0.338-0.892-0.573-1.382-0.705-0.484-0.126-1.072-0.197-1.765-0.214v0l0.046-1.86 15.466 0.391-0.047 1.859c-1.639-0.041-2.796 0.053-3.469 0.283-0.679 0.23-1.027 0.654-1.042 1.274v0c-0.017 0.686 0.334 1.679 1.055 2.978v0l7.279 13.198 0.2 0.005 5.774-9.187c1.098-1.739 1.879-3.11 2.344-4.112 0.466-1.009 0.706-1.823 0.722-2.443v0c0.016-0.62-0.21-1.059-0.677-1.317-0.467-0.259-1.29-0.403-2.47-0.433v0l0.047-1.859 11.237 0.284-0.047 1.859c-0.686-0.017-1.302 0.067-1.847 0.253-0.545 0.18-1.118 0.559-1.719 1.137-0.608 0.571-1.275 1.372-2.002 2.401-0.733 1.028-1.627 2.38-2.683 4.053v0l-7.88 12.575-0.148 5.838c-0.041 1.606-0.016 2.891 0.073 3.853 0.089 0.969 0.317 1.722 0.683 2.258 0.36 0.529 0.891 0.893 1.593 1.091 0.695 0.198 1.633 0.311 2.813 0.341v0l-0.048 1.869-15.895-0.401 0.048-1.87c1.173 0.03 2.115-0.037 2.825-0.198 0.704-0.162 1.253-0.492 1.646-0.989 0.386-0.497 0.657-1.2 0.814-2.11 0.157-0.916 0.254-2.128 0.291-3.634v0zM274.878 3.774l-17.642-0.995 0.105-1.867c1.273 0.045 2.297 0.006 3.072-0.117 0.781-0.123 1.386-0.366 1.814-0.729 0.435-0.369 0.746-0.909 0.932-1.62 0.187-0.711 0.313-1.638 0.377-2.784v0l1.288-22.843c0.065-1.145 0.06-2.07-0.014-2.776-0.08-0.712-0.278-1.281-0.595-1.706-0.323-0.432-0.806-0.74-1.45-0.923-0.644-0.183-1.487-0.338-2.528-0.463v0l0.105-1.857 14.657 0.826c4.406 0.248 7.793 1.224 10.161 2.927 2.361 1.709 3.461 3.984 3.301 6.827v0c-0.122 2.157-0.9 3.882-2.335 5.176-1.436 1.301-3.646 2.308-6.631 3.022v0l-0.011 0.2c1.006 0.15 1.882 0.313 2.627 0.488 0.745 0.176 1.405 0.37 1.98 0.583 0.576 0.213 1.109 0.463 1.6 0.751 0.498 0.288 0.981 0.609 1.448 0.963v0c2.792 2.227 4.101 4.892 3.927 7.994v0c-0.098 1.731-0.671 3.314-1.72 4.75-1.049 1.43-2.463 2.522-4.241 3.277v0c-0.569 0.262-1.155 0.466-1.758 0.612-0.596 0.147-1.29 0.254-2.081 0.323-0.792 0.069-1.702 0.101-2.73 0.097-1.034-0.012-2.254-0.057-3.658-0.136zM275.146 1.675v0c5.911 0.333 9.009-2.033 9.295-7.098v0c0.208-3.694-1.164-6.362-4.116-8.004v0c-0.513-0.256-1.008-0.481-1.485-0.675-0.484-0.188-1.049-0.343-1.696-0.466-0.648-0.117-1.42-0.217-2.317-0.301-0.897-0.084-2.001-0.163-3.312-0.237v0l-2.206-0.124-0.617 10.933c-0.113 1.997 0.329 3.457 1.326 4.381 0.996 0.924 2.706 1.455 5.128 1.591zM269.447-17.676l2.745 0.155c1.012 0.057 1.861 0.088 2.549 0.093 0.694 0.006 1.286-0.018 1.777-0.07 0.497-0.052 0.936-0.144 1.317-0.276 0.388-0.125 0.785-0.306 1.193-0.544v0c1.082-0.593 1.868-1.337 2.359-2.231 0.491-0.887 0.778-2.066 0.861-3.537v0c0.146-2.583-0.379-4.472-1.574-5.667-1.194-1.202-3.129-1.879-5.805-2.03v0l-3.774-0.213c-0.559-0.032-0.854 0.232-0.886 0.791v0zM318.556-1.445l-1.564-5.448-13.065-1.084c-0.663 1.296-1.233 2.44-1.71 3.43-0.477 0.997-0.87 1.861-1.178 2.592-0.308 0.73-0.534 1.351-0.676 1.86-0.137 0.517-0.218 0.938-0.246 1.264v0c-0.076 0.91 0.165 1.562 0.721 1.957 0.557 0.387 1.522 0.638 2.897 0.752v0l-0.154 1.863-11.889-0.986 0.154-1.864c0.752-0.031 1.404-0.108 1.956-0.229 0.551-0.115 1.045-0.305 1.482-0.569 0.43-0.259 0.82-0.611 1.172-1.057 0.345-0.446 0.695-0.999 1.05-1.659v0l15.36-30.795 2.103 0.175 8.821 28.517c0.599 1.889 1.129 3.402 1.591 4.537 0.467 1.143 0.937 2.011 1.409 2.606 0.479 0.595 1.014 1.001 1.605 1.216 0.584 0.216 1.301 0.359 2.152 0.43v0l-0.158 1.903-15.955-1.324 0.158-1.903c1.734 0.144 2.94 0.077 3.619-0.202 0.678-0.272 1.048-0.783 1.11-1.533v0c0.027-0.326 0.035-0.626 0.025-0.901-0.01-0.282-0.041-0.589-0.094-0.921-0.053-0.332-0.135-0.71-0.247-1.134-0.113-0.417-0.262-0.915-0.449-1.493zM312.035-24.302l-6.929 13.964 11.162 0.927zM364.588-16.823v0c-0.282 2.605-1.294 4.685-3.038 6.24-1.751 1.554-4.364 2.442-7.842 2.662v0l9.383 14.151c0.759 1.168 1.643 2.045 2.653 2.631 1.003 0.585 2.225 1.069 3.665 1.452v0l-0.201 1.859-9.415-1.018-10.303-16.624c-0.365-0.596-0.715-1.076-1.051-1.441-0.343-0.366-0.707-0.66-1.091-0.883-0.392-0.223-0.853-0.391-1.384-0.501-0.532-0.104-1.172-0.197-1.922-0.278v0l-1.097 10.15c-0.13 1.206-0.161 2.199-0.091 2.978 0.063 0.785 0.307 1.411 0.732 1.879 0.425 0.475 1.077 0.834 1.956 1.077 0.879 0.243 2.051 0.443 3.516 0.601v0l-0.201 1.86-17.23-1.863 0.201-1.86c1.143 0.097 2.071 0.1 2.785 0.01 0.72-0.09 1.297-0.306 1.73-0.648 0.433-0.349 0.752-0.874 0.955-1.576 0.21-0.701 0.377-1.622 0.5-2.763v0l2.459-22.747c0.123-1.14 0.166-2.064 0.129-2.772-0.037-0.715-0.206-1.293-0.506-1.735-0.294-0.447-0.761-0.78-1.401-0.996-0.634-0.216-1.467-0.413-2.501-0.592v0l0.2-1.85 15.33 1.658c4.487 0.485 7.871 1.689 10.151 3.612 2.273 1.922 3.25 4.365 2.929 7.327zM345.842-25.216l-1.536 14.207 3.469 0.375c3.254 0.352 5.735 0.017 7.442-1.006 1.706-1.016 2.706-2.889 3.001-5.62v0c0.285-2.638-0.137-4.595-1.266-5.87-1.129-1.275-3.026-2.057-5.691-2.345v0l-4.494-0.486c-0.557-0.06-0.865 0.188-0.925 0.745z" opacity="1" transform="matrix(1,0,0,1,0,0)" fill="#000000" class="wordmark-text-0" data-fill-palette-color="quaternary" id="text-0"></path></svg></g></svg></g></svg></g></svg></g><g transform="matrix(1,0,0,1,84.71816379377564,0)"><svg viewBox="0 0 60.963672412448716 49.67235888325271" height="49.67235888325271" width="60.963672412448716"><g><svg version="1.1" xmlns:sodipodi="http://sodipodi.sourceforge.net/DTD/sodipodi-0.dtd" xmlns:rdf="http://www.w3.org/1999/02/22-rdf-syntax-ns#" xmlns:dc="http://purl.org/dc/elements/1.1/" xmlns:cc="http://creativecommons.org/ns#" xmlns:inkscape="http://www.inkscape.org/namespaces/inkscape" xmlns:svg="http://www.w3.org/2000/svg" xmlns="http://www.w3.org/2000/svg" xmlns:xlink="http://www.w3.org/1999/xlink" x="0" y="0" viewBox="0.3539999723434448 9.633001327514648 99.99800872802734 81.47699737548828" enable-background="new 0.354 9.633 100 81.478" xml:space="preserve" width="60.963672412448716" height="49.67235888325271" class="icon-icon-0" data-fill-palette-color="quaternary" id="icon-0"><path d="M94.995 27.002c-0.135 0-0.242 0.153-0.242 0.343v5.342 0.28 0.28c-0.524 0.198-1.686 1.169-1.686 2.991v11.198c0 0.278 0.101 0.717 0.529 0.717h3.798c0.428 0 0.528-0.438 0.528-0.717V36.239c0-1.871-1.18-2.846-1.684-3.006v-0.265-0.28-5.342c0-0.19-0.108-0.343-0.242-0.343H94.995z" fill="#000000" data-fill-palette-color="quaternary"></path><path d="M21.231 30.025c3.089 0 5.594-2.88 5.594-6.422s-2.505-6.417-5.594-6.417c-3.088 0-5.593 2.875-5.593 6.417S18.144 30.025 21.231 30.025z" fill="#000000" data-fill-palette-color="quaternary"></path><path d="M14.118 44.849c0 0.013-0.006 0.025-0.006 0.039v4.085h0.006V44.849z" fill="#000000" data-fill-palette-color="quaternary"></path><path d="M13.852 62.69c-1.002 0-1.817-0.925-1.817-2.061v-2.157l-3.93 7.17c-0.233 0.426-0.178 0.934 0.091 1.273V80.31c0 0.683 0.441 1.235 0.985 1.235h3.683c0.544 0 0.986-0.553 0.986-1.235V67.35l2.554-4.659H13.852z" fill="#000000" data-fill-palette-color="quaternary"></path><path d="M22.974 86.097V62.69v-0.963-0.964h2.034 2.713c0.012-0.031 0.021-0.076 0.021-0.134v-2.55c0-0.058-0.01-0.103-0.021-0.135h-4.258-0.767-3.693-0.313-4.708c-0.012 0.032-0.021 0.077-0.021 0.135v2.55c0 0.058 0.01 0.103 0.021 0.134h3.477 0.953v0.964 0.963 23.41c-5.049 0.242-8.839 1.26-8.839 2.477 0 1.398 4.995 2.533 11.156 2.533 6.162 0 11.157-1.135 11.157-2.533C31.885 87.354 28.059 86.332 22.974 86.097z" fill="#000000" data-fill-palette-color="quaternary"></path><path d="M77.244 23.138c2.966 0 5.366-3.024 5.366-6.754 0-3.726-2.4-6.751-5.366-6.751-2.964 0-5.367 3.026-5.367 6.751C71.877 20.114 74.28 23.138 77.244 23.138z" fill="#000000" data-fill-palette-color="quaternary"></path><path d="M99.411 48.973h-9.543V33.235c0-7.091-1.681-8.765-6.852-8.765l-5.772 0.002-5.767-0.002c-2.5 0-3.109 1.021-3.786 1.872L57.471 41.786c-0.129-0.074-0.27-0.108-0.419-0.086-0.244 0.037-0.959 0.292-0.959 0.292-0.011 0-0.022 0.003-0.034 0.005v-1.709h-0.003c0-0.132 0-0.592 0-0.784-0.002-0.451-0.014-0.912-0.139-1.321-0.111-0.416-0.433-0.769-0.842-0.75-0.063 0-0.129 0.006-0.196 0.02-0.482 0.086-0.8 0.454-1.022 0.762-0.223 0.32-0.389 0.552-0.486 0.571-0.044 0.016-0.09 0.023-0.139 0.023-0.195 0.003-0.431-0.138-0.574-0.255-0.166-0.125-0.607-0.589-1.167-0.595-0.475-0.005-0.845 0.263-1.062 0.646-0.218 0.381-0.299 0.842-0.3 1.258l0 0.464v7.945c0 0.284 0.1 0.53 0.249 0.701H28.346v-9.147c0 0 2.973 4.753 3.886 6.396 1.342 2.415 2.761 3.152 4.278 0.97l5.439-7.537c0.181 0.215 0.413 0.341 0.667 0.303 0.244-0.037 0.958-0.292 0.958-0.292 0.013 0 0.023-0.004 0.036-0.005v0.775c0 0.515 0.31 0.934 0.693 0.934h4.544c0.383 0 0.692-0.419 0.692-0.934v-7.945l0-0.464c-0.001-0.415-0.082-0.876-0.3-1.258-0.218-0.383-0.588-0.651-1.061-0.646-0.561 0.006-1.001 0.47-1.168 0.595-0.143 0.118-0.38 0.259-0.575 0.255-0.049 0-0.094-0.008-0.138-0.023-0.097-0.019-0.263-0.251-0.486-0.571-0.223-0.309-0.541-0.675-1.022-0.762-0.068-0.013-0.134-0.02-0.197-0.02-0.409-0.019-0.729 0.334-0.841 0.75-0.125 0.41-0.138 0.871-0.139 1.321 0 0.192 0 0.652 0 0.785H43.61v1.708c-0.012-0.001-0.023-0.005-0.036-0.005 0 0-0.714-0.255-0.958-0.292-0.47-0.071-0.866 0.403-0.991 1.002-0.811-0.38-1.812-0.265-2.594 0.709l-3.541 4.861c0 0.08-1.171-1.999-1.553-2.67-1.964-3.463-2.646-6.48-6.695-6.48l-6.011 0.004-6.013-0.004c-5.39 0-7.172 1.597-7.142 8.334l0.042 9.352H1.296c-0.521 0-0.942 0.542-0.942 1.211v4.352c0 0.669 0.422 1.211 0.942 1.211h12.231l-0.203 0.371c0.168-0.058 0.343-0.099 0.527-0.099h0.296 5.742 2.886 5.076c0.137 0 0.268 0.019 0.395 0.049 0.822 0.2 1.422 1.012 1.422 2.012v2.55c0 1.154-0.798 2.061-1.817 2.061h-1.788l2.729 4.979v12.96c0 0.681 0.441 1.233 0.985 1.233h3.683c0.544 0 0.986-0.553 0.986-1.233V67.234c0.268-0.339 0.324-0.846 0.091-1.271l-5.599-10.216h41.478v31.158c0 5.39 5.875 5.232 5.875 0l0.372-30.126h1.165l0.369 30.126c0 5.232 5.875 5.39 5.875 0V55.747h1.856c0.816 1.64 2.745 1.64 3.562 0h9.92c0.521 0 0.942-0.542 0.942-1.211v-4.352C100.354 49.516 99.933 48.973 99.411 48.973zM45.293 39.493c0 0.228-0.13 0.412-0.292 0.412-0.16 0-0.292-0.184-0.292-0.412v-5.167c0-0.226 0.131-0.409 0.292-0.409 0.162 0 0.292 0.184 0.292 0.409V39.493zM46.867 39.493c0 0.228-0.131 0.412-0.292 0.412-0.162 0-0.292-0.184-0.292-0.412v-5.167c0-0.226 0.13-0.409 0.292-0.409 0.16 0 0.292 0.184 0.292 0.409V39.493zM48.439 39.493c0 0.228-0.13 0.412-0.291 0.412-0.162 0-0.292-0.184-0.292-0.412v-5.167c0-0.226 0.131-0.409 0.292-0.409 0.161 0 0.291 0.184 0.291 0.409V39.493zM44.152 31.668c-0.002-0.42 0.023-0.813 0.096-1.04 0.084-0.221 0.12-0.284 0.345-0.303 0.035 0 0.076 0.004 0.123 0.013 0.314 0.061 0.51 0.276 0.713 0.553 0.204 0.265 0.378 0.621 0.732 0.765 0.093 0.033 0.186 0.047 0.276 0.046 0.361-0.003 0.663-0.209 0.85-0.357 0.201-0.17 0.563-0.499 0.893-0.493 0.335 0.005 0.51 0.156 0.636 0.367C48.939 31.432 49 31.741 49 32.027v0.426h-4.848V31.668zM42.368 35.257c0-0.103 0.062-0.187 0.139-0.187l1.067 0.292c0.012 0 0.023-0.004 0.036-0.005v3.107c-0.012-0.001-0.023-0.005-0.036-0.005l-0.98 0.269c0.77-1.265 0.493-2.535-0.226-3.312V35.257zM14.118 44.849v4.124h-0.006-1.557l0.406-7.667h1.156V44.849zM51.812 47.329c0 0.228-0.131 0.412-0.292 0.412s-0.291-0.184-0.291-0.412v-5.167c0-0.226 0.13-0.41 0.291-0.41s0.292 0.184 0.292 0.41V47.329zM53.386 47.329c0 0.228-0.132 0.412-0.293 0.412s-0.292-0.184-0.292-0.412v-5.167c0-0.226 0.131-0.41 0.292-0.41s0.293 0.184 0.293 0.41V47.329zM54.959 47.329c0 0.228-0.132 0.412-0.292 0.412-0.162 0-0.292-0.184-0.292-0.412v-5.167c0-0.226 0.13-0.41 0.292-0.41 0.16 0 0.292 0.184 0.292 0.41V47.329zM55.517 40.288h-4.849v-0.426c-0.001-0.286 0.061-0.595 0.185-0.808 0.127-0.211 0.302-0.361 0.638-0.367 0.328-0.006 0.691 0.323 0.892 0.493 0.188 0.148 0.488 0.353 0.85 0.356 0.09 0.001 0.183-0.013 0.277-0.046 0.353-0.144 0.527-0.5 0.731-0.765 0.203-0.277 0.398-0.492 0.712-0.553 0.048-0.008 0.089-0.012 0.123-0.012 0.226 0.019 0.261 0.082 0.345 0.302 0.073 0.226 0.099 0.619 0.097 1.04V40.288zM56.059 43.193c0.012 0.001 0.023 0.005 0.034 0.005l0.729-0.199c-0.446 1.251-0.159 2.485 0.478 3.322v0.08c0 0.103-0.062 0.187-0.138 0.187l-1.068-0.292c-0.011 0-0.022 0.004-0.034 0.005V43.193zM55.809 48.973c0.15-0.171 0.25-0.417 0.25-0.701v-0.776c0.012 0.001 0.022 0.005 0.034 0.005 0 0 0.715 0.255 0.959 0.292 0.418 0.063 0.779-0.306 0.942-0.81 0.92 0.609 2.109 0.553 3.007-0.751l9.416-12.784v15.525H55.809zM84.073 35.003h1.107l0.274 13.97h-1.382V35.003z" fill="#000000" data-fill-palette-color="quaternary"></path></svg></g></svg></g><g></g></svg></g></svg></g></svg></g><defs></defs></svg><rect width="384" height="360" fill="none" stroke="none" visibility="hidden"></rect></g></svg></g></svg>